<?xml version="1.0" encoding="UTF-8" standalone="no"?>
<!DOCTYPE svg PUBLIC "-//W3C//DTD SVG 1.1//EN" "http://www.w3.org/Graphics/SVG/1.1/DTD/svg11.dtd">
<svg width="100%" height="100%" viewBox="0 0 961 759" version="1.1" xmlns="http://www.w3.org/2000/svg" xmlns:xlink="http://www.w3.org/1999/xlink" xml:space="preserve" xmlns:serif="http://www.serif.com/" style="fill-rule:evenodd;clip-rule:evenodd;stroke-linejoin:round;stroke-miterlimit:2;">
    <g transform="matrix(1,0,0,1,-2106.227108,-2428.111039)">
        <g id="Artboard6" transform="matrix(0.938477,0,0,0.741211,1098.30328,835.989945)">
            <rect x="1074" y="2148" width="1024" height="1024" style="fill:none;"/>
            <g id="card-bg" serif:id="card bg" transform="matrix(1.746481,0,0,2.211289,669.884195,1520.543568)">
                <path d="M674.888,294.909C679.557,291.573 689.918,294.891 694.646,302.459C693.209,308.791 682.84,318.162 683.996,322.378C684.395,323.834 687.48,335.086 689.709,340.368C691.252,344.027 697.984,327.705 702.591,324.407C707.834,340.445 708.241,341.507 707.818,344.618C706.797,346.024 696.164,360.664 696.932,363.413C697.357,364.936 700.851,377.442 702.795,382.3C704.063,385.469 706.135,376.909 715.475,365.529C721.184,381.981 720.408,382.165 720.152,383.398C719.337,384.66 717.293,387.829 710.342,399.406C709.357,401.046 709.181,401.307 715.327,420.592C716.146,423.163 718.65,418.956 718.812,418.682C719.281,417.895 726.813,405.79 727.52,405.423C727.77,405.294 728.087,405.765 728.337,405.635C732.829,419.663 733.169,419.589 733.062,422.432C722.759,439.158 722.316,438.931 721.857,440.574C721.412,442.167 721.858,442.135 727.632,460.425C728.991,464.731 734.87,449.864 740.611,445.345C748.919,468.007 748.476,470.183 748.029,472.381C738.715,487.436 738.573,487.332 737.841,488.685C737.016,490.209 737.003,490.461 743.234,509.667C744.792,514.469 751.225,496.98 756.108,493.826C759.162,503.491 760.377,506.12 761.027,511.446C751.259,528.665 748.869,528.239 750.285,532.57C755.855,549.602 754.944,550.434 756.46,550.592C758.884,550.844 762.954,538.319 768.697,534.283C772.997,548.54 774.102,548.466 773.053,552.341C771.223,554.634 762.648,567.927 762.346,569.471C762.209,570.168 762.365,570.169 767.989,588.331C769.707,593.881 772.024,584.45 780.616,574.176C780.716,574.44 781.255,574.326 781.355,574.59C793.725,607.281 773.176,609.179 753.519,615.647C753.282,615.138 752.446,615.097 752.208,614.587C752.018,614.179 761.088,595.583 760.331,594.626C759.841,594.006 740.452,599.804 739.438,601.456C738.401,603.146 738.462,603.153 731.023,621.172C728.478,624.448 727.852,623.693 709.457,629.701C709.278,623.699 720.048,607.225 715.478,608.236C714.088,608.544 714.23,608.926 698.577,613.784C696.582,614.403 695.577,614.916 688.095,634.298C686.841,638.027 684.247,637.21 669.501,642.503C668.018,643.035 668.054,642.941 666.514,643.407C671.247,627.494 677.52,620.331 673.498,621.475C654.246,626.947 653.893,627.773 653.21,629.375C648.497,640.421 645.706,647.578 645.084,649.173C642.142,652.194 640.158,651.506 620.573,658.005C621.245,652.058 630.701,636.583 627.518,636.377C626.162,636.289 610.783,641.596 609.342,642.093C607.318,642.791 607.922,643.408 599.222,664.241C597.79,665.095 594.667,666.958 579.558,671.17C579.308,665.407 591.336,647.482 585.495,649.482C567.815,655.536 567.542,655.28 566.732,656.668C565.081,659.495 565.312,659.538 558.056,677.077C556.859,678.231 555.704,679.346 538.545,684.221C538.674,680.22 547.526,663.634 546.434,662.568C545.473,661.63 528.91,667.732 527.42,668.281C524.876,669.218 522.886,676.497 517.149,689.294C515.091,693.376 504.553,695.395 498.396,696.668C499.717,689.981 508.947,674.62 505.534,674.901C504.003,675.027 504.098,675.386 487.325,681.007C485.437,681.64 485.144,681.84 476.314,703.322C472.84,705.999 472.416,705.097 459.499,709.422C457.438,704.995 471.972,685.318 464.402,688.187C455.293,691.638 447.304,691.978 445.316,696.414C444.645,697.91 444.696,697.887 437.033,715.159C434.015,718.584 430.148,718.831 418.551,722.258C418.986,718.06 429.549,699.258 425.504,700.252C418.045,702.084 409.102,705.466 407.702,705.995C405.976,706.647 400.18,720.977 397.012,728.07C394.424,730.909 373.958,737.757 367.442,736.893C362.224,736.201 362.24,736.11 357.84,733.25C362.16,722.341 367.787,723.478 365.098,714.617C364.827,713.722 364.698,713.781 361.523,703.492C360.051,698.718 360.333,698.442 359.565,698.346C357.023,698.03 354.553,708.116 347.555,714.449C343.153,700.641 342.122,698.851 342.634,695.538C354.396,678.339 353.627,677.666 353.027,675.641C347.825,658.063 348.046,657.38 346.498,657.418C345.21,657.45 341.296,666.916 335.431,673.63C334.169,671.97 329.531,658.23 329.895,654.6C337.021,643.467 341.415,638.058 340.643,635.454C340.29,634.264 338.475,628.142 336.131,620.614C336.098,620.509 335.113,613.656 332.661,617.603C324.235,631.166 323.58,631.679 322.438,632.573C316.606,614.313 315.697,612.98 316.523,609.508C325.394,595.762 327.941,593.757 326.85,590.383C321.339,573.346 321.653,573.251 321.006,571.836C319.692,568.964 312.531,585.38 308.659,588.313L307.86,586.387C303.785,572.223 303.8,571.872 303.853,570.567C304.712,569.207 314.091,554.36 314.472,553.486C315.162,551.908 314.969,551.769 309.036,532.66C307.189,526.711 302.903,542.328 296.193,547.933C290.587,531.942 291.107,531.609 291.832,529.633C292.943,528.231 297.501,520.927 300.93,515.79C303.523,511.907 302.262,511.427 296.516,492.491C295.701,489.802 293.848,493.5 289.989,499.795C285.878,506.502 286.059,507.004 283.676,507.376C278.248,490.009 277.578,489.843 278.979,486.666C279.514,485.944 279.788,485.574 285.041,477.214C287.424,473.423 289.595,470.447 289.107,468.6C288.703,467.073 284.79,452.275 283.121,449.785C282.147,448.332 281.898,450.074 272.143,465.027C271.501,466.012 270.738,465.35 270.692,465.361C262.951,441.351 253.558,425.524 295.567,416.373C291.855,428.655 284.007,439.323 289.514,437.563C307.508,431.814 307.771,431.955 308.544,430.528C310.997,425.997 316.257,411.505 316.866,409.827C323.026,405.937 323.41,406.953 333.67,404.027C334.95,407.917 322.631,426.906 327.472,425.333C347.05,418.971 347.295,418.892 348.021,417.282C348.713,415.747 353.957,404.113 355.77,397.707C359.591,394.281 360.076,395.256 372.533,391.245C372.774,391.753 373.6,391.653 372.74,393.57C364.78,411.318 364.931,412.853 366.503,412.561C371.265,411.674 383.119,407.145 384.539,406.603C386.215,405.962 386.454,405.784 394.101,386.313C394.152,386.184 394.145,386.192 394.694,384.675C399.046,382.222 402.35,381.135 411.721,379.053C411.619,379.507 412.11,379.966 412.008,380.42C411.663,381.953 411.183,381.753 404.179,398.437C402.47,402.509 406.236,399.44 420.439,395.286C427.06,393.35 425.906,391.573 433.794,372.71C437.01,369.687 439.27,369.627 450.584,366.188C450.467,375.119 437.547,389.968 445.647,386.959C459.328,381.878 462.693,384.056 466.007,376.278C466.567,374.963 466.537,374.965 472.806,359.751C473.906,358.838 474.603,358.259 489.503,353.411C491.357,357.17 479.198,375.529 483.45,375.054C484.8,374.903 484.615,374.322 499.526,369.586C505.022,367.84 503.811,366.236 511.997,346.961C515.355,344.463 515.568,345.059 519.576,343.729C526.686,341.37 526.585,341.191 529.463,340.668C529.543,345.771 518.995,362.476 522.508,362.031C523.616,361.89 538.975,356.672 540.401,356.188C542.204,355.576 543.281,355.21 550.925,334.837C552.962,332.57 553.194,332.696 570.527,327.382C569.452,334.51 559.643,350.556 564.547,348.761C577.958,343.851 582.739,344.218 584.227,340.408C584.776,339.003 584.751,339.011 590.958,322.791C592.668,318.891 596.692,318.859 612.488,313.644C613.098,319.304 601.701,336.233 606.427,335.094C608.041,334.705 624.883,330.646 626.013,328.23C626.728,326.703 626.392,326.604 633.837,308.669C634.835,306.794 634.815,306.281 653.467,300.723C653.41,305.127 644.387,320.915 645.726,322.289C646.375,322.954 665.874,316.227 666.558,315.566C667.2,314.948 673.993,298.075 674.888,294.909ZM359.77,514.35C359.818,514.48 361.512,523.978 369.454,524.838C386.547,526.688 384.288,500.447 370.498,501.389C358.366,502.218 359.783,513.847 359.77,514.35ZM370.643,507.304C373.332,507.304 375.516,509.923 375.516,513.148C375.516,516.373 373.332,518.991 370.643,518.991C367.954,518.991 365.771,516.373 365.771,513.148C365.771,509.923 367.954,507.304 370.643,507.304ZM357.604,512.488C357.321,510.794 357.222,505.931 354.569,506.736C337.96,511.773 337.517,511.322 336.998,512.713C336.288,514.612 338.848,520.847 341.412,519.314C343.087,518.312 343.466,512.39 345.306,516.588C345.57,517.19 345.359,517.147 347.568,524.479C347.968,525.808 345.182,530.908 348.441,531.693C349.466,531.94 361.415,529.629 357.052,524.878C356.552,524.333 354.632,524.313 354.138,522.626C352.366,516.583 349.458,509.602 354.721,514.145C357.077,516.177 357.567,512.752 357.604,512.488ZM407.632,628.935C476.533,606.442 476.193,605.577 545.628,584.933C547.266,584.446 617.529,563.556 566.527,580.559C497.978,603.413 398.544,641.8 384.79,649.988C380.582,652.493 382.519,654.751 385.495,654.447C392.241,653.757 393.626,653.615 466.604,629.816C629.383,576.733 630.65,580.844 644.611,575.685C646.241,575.083 645.733,572.135 642.58,572.911C636.586,574.386 630.673,575.842 568.437,594.277C542.977,601.819 414.542,643.111 414.396,643.162C357.381,662.686 429.18,633.046 513.487,602.465C562.465,584.698 591.255,574.891 592.622,572.595C596.125,566.707 574.488,573.404 555.399,579.005C423.857,617.599 424.93,620.919 413.49,624.253C375.006,635.467 423.266,619.17 464.593,603.745C580.142,560.617 579.53,559.078 585.256,556.048C589.935,553.572 587.79,550.774 584.478,551.319C577.504,552.467 560.691,555.233 499.377,575.052C405.361,605.441 405.741,606.521 397.5,608.941C384.008,612.903 400.35,605.998 400.676,605.861C401.072,605.693 401.079,605.735 405.686,603.888C507.346,563.147 518.509,558.54 509.451,557.928C504.32,557.582 429.4,584.051 422.497,586.49C370.033,605.025 364.757,604.767 368.487,607.521C370.881,609.288 461.681,575.68 473.397,572.171C509.465,561.37 381.371,607.016 381.804,613.464C382.022,616.715 384.674,616.342 466.621,588.9C478.399,584.956 617.114,541.253 567.701,560.943C473.114,598.635 386.41,627.885 381.664,633.622C376.499,639.867 398.31,632.023 407.632,628.935ZM610.249,409.347C609.248,407.269 609.688,405.668 607.675,406.859C595.695,413.948 595.704,416.121 575.504,414.421C561.014,413.201 545.335,423.142 545.381,426.503C545.387,426.935 545.779,430.026 550.731,425.787C565.16,413.433 580.911,421.162 594.533,417.623C603.316,415.341 603.385,415.264 610.249,409.347ZM649.422,344.152C649.662,344.715 650.511,344.857 650.752,345.42C651.027,346.066 629.4,379.364 621.603,392.449C624.103,400.654 623.551,400.758 627.136,408.485C630.141,404.767 661.222,353.535 666.152,347.666C665.958,347.094 663.918,341.065 663.401,340.641C662.804,340.153 660.815,340.748 660.6,340.812C659.706,341.08 653.974,342.795 649.422,344.152ZM554.381,613.113C558.063,611.494 558.623,611.867 558.753,610.525C558.77,610.356 558.872,609.306 557.435,608.858C555.388,608.219 503.878,624.291 486.394,630.189C402.555,658.473 396.599,657.729 400.412,661.593C402.138,663.341 440.417,651.089 451.494,646.487C469.187,639.137 510.684,627.759 554.381,613.113ZM602.737,374.582C599.867,375.703 599.381,374.018 596.877,375.924C572.542,394.448 563.129,372.673 537.586,392.609C532.727,396.401 536.756,398.221 538.174,397.068C552.473,385.447 559.588,386.526 573.504,387.433C591.237,388.587 600.205,376.6 601.604,377.415C601.865,377.567 601.655,378.113 601.916,378.265C602.55,376.44 602.527,376.495 602.737,374.582ZM349.116,552.605C350.565,555.682 350.249,556.255 351.498,556.202C356.702,555.981 355.1,558.463 356.599,563.469C360.358,576.014 362.122,579.56 360.182,581.033C357.323,583.205 360.45,591.282 363.444,590.318C375.023,586.59 378.783,586.031 378.157,583.594C376.98,579.013 378.202,577.197 373.473,576.829C370.698,576.613 371.129,572.115 368.033,564.601C367.941,564.378 363.163,551.255 369.116,561.795C374.636,571.569 375.276,571.067 381.931,580.181C382.325,580.72 386.268,586.12 390.201,581.284C391.797,579.322 391.296,555.639 391.249,553.408C391.038,543.448 395.54,563.512 395.749,564.443C396.492,567.755 396.864,567.977 394.805,570.709C394.685,570.868 393.508,580.836 399.399,579.108C416.779,574.01 416.935,572.948 416.583,571.486C415.503,567.01 417.094,565.058 412.492,564.692C410.586,564.54 409.565,564.459 403.755,542.438C402.889,539.156 406.044,539.646 405.513,536.498C404.575,530.944 403.562,530.265 401.578,530.817C382.664,536.08 382.462,536.823 382.316,538.475C381.509,547.604 383.751,561.821 380.179,555.836C380.08,555.671 371.025,543.406 370.349,542.63C369.237,541.354 368.332,540.315 349.595,546.77C346.151,547.956 348.039,549.168 349.116,552.605ZM629.308,351.007C628.709,351.173 615.741,354.634 612.711,355.985C610.481,356.979 610.737,357.962 616.768,376.463C617.967,374.584 631.448,353.467 630.998,352.5C630.681,351.818 629.625,351.688 629.308,351.007ZM542.663,401.73C542.301,402.042 538.589,405.247 538.922,406.388C540.569,412.029 548.017,395.479 570.51,397.35C573.188,397.573 594.501,399.346 603.08,389.16C604.649,387.298 603.423,384.383 601.588,385.666C586.343,396.336 585.168,394.065 566.5,393.692C555.169,393.466 544.342,400.621 542.663,401.73ZM680.877,395.502C677.648,398.628 674.303,403.235 670.621,411.688C675.17,410.854 675.058,410.793 679.51,409.529C688.101,407.089 684.239,403.818 680.877,395.502ZM389.379,519.075C389.795,518.84 394.211,516.342 390.707,513.255C386.323,509.393 381.17,519.382 389.379,519.075ZM387.653,508.681C387.859,508.425 389.463,506.429 388.31,504.622C388.169,504.401 387.332,503.088 385.473,502.978C380.371,502.675 380.968,512.596 387.653,508.681ZM432.606,539.877C432.029,540.006 426.583,541.219 427.531,534.504C427.765,532.846 435.009,529.459 435.98,532.287C436.863,534.856 436.791,535.845 439.37,535.037C444.448,533.447 447.532,534.75 446.098,529.619C444.184,522.767 443.029,517.509 440.445,518.285C437.761,519.092 408.241,527.959 407.173,529.245C406.562,529.982 407.792,537.62 410.495,537.726C413.864,537.858 413.907,539.898 417.547,551.485C420.135,559.725 420.801,560.358 417.996,562.978C417.028,563.882 418.495,572.638 421.577,571.836C424.067,571.188 453.975,561.813 454.444,561.423C455.317,560.695 455.766,560.322 451.391,547.545C450.902,546.117 450.387,545.615 442.618,547.955C438.401,549.226 443.178,554.275 439.591,555.693C437.104,556.677 434.098,557.902 433.328,555.572C433.136,554.991 431.05,548.684 432.684,547.958C435.476,546.719 440.22,547.918 438.354,540.544C437.648,537.751 432.736,539.849 432.606,539.877ZM546.395,416.364C559.903,405.966 567.559,407.249 579.519,408.264C591.874,409.314 607.901,401.406 606.766,397.418C604.931,390.965 601.574,407.501 575.527,404.291C572.792,403.953 555.637,401.839 542.671,414.648C542.438,414.879 540.478,420.402 546.395,416.364ZM670.947,363.472C662.728,373.589 658.708,383.337 635.832,417.701C633.267,421.554 634.666,421.84 634.655,422.871C636.117,422.594 637.634,422.305 652.529,417.7C656.373,409.789 672.681,385.596 675.956,379.131C675.556,377.878 673.518,371.495 670.947,363.472Z" style="fill:rgb(116,212,206);"/>
            </g>
        </g>
    </g>
</svg>
